<?xml version="1.0" standalone="no"?>
<!DOCTYPE svg PUBLIC "-//W3C//DTD SVG 20010904//EN"
 "http://www.w3.org/TR/2001/REC-SVG-20010904/DTD/svg10.dtd">
<svg version="1.0" xmlns="http://www.w3.org/2000/svg"
 width="700.000000pt" height="700.000000pt" viewBox="0 0 700.000000 700.000000"
 preserveAspectRatio="xMidYMid meet">
<metadata>
Created by potrace 1.14, written by Peter Selinger 2001-2017
</metadata>
<g transform="translate(0.000000,700.000000) scale(0.100000,-0.100000)"
fill="#000000" stroke="none">
<path d="M2679 6011 c-16 -5 -13 -2 -104 -106 -38 -44 -76 -87 -85 -96 -8 -9
-28 -31 -45 -50 -16 -19 -62 -71 -103 -116 -61 -69 -72 -86 -68 -110 3 -15 15
-93 26 -173 11 -80 23 -152 25 -160 3 -8 70 -65 151 -125 l145 -110 -6 -175
c-3 -96 -8 -211 -10 -255 -4 -82 -10 -209 -21 -465 -3 -80 -7 -170 -9 -200 -2
-30 -4 -98 -5 -151 l-2 -95 79 -120 c43 -65 119 -181 169 -257 49 -75 139
-212 199 -305 61 -92 152 -231 202 -310 51 -78 99 -142 106 -142 6 0 50 14 97
31 47 17 114 41 150 54 36 12 84 31 108 40 l44 18 -7 131 c-3 72 -8 145 -10
161 -2 17 -6 73 -10 125 -15 249 -7 220 -108 400 -11 19 -81 145 -156 280
l-137 245 2 218 c1 120 5 221 8 224 3 3 145 5 316 5 283 0 311 2 320 18 7 13
-25 57 -163 221 -365 434 -446 533 -443 538 2 3 7 51 10 106 4 55 9 136 13
180 3 44 6 92 6 106 0 17 -33 79 -89 167 -49 78 -93 150 -99 162 -15 31 -4 28
-291 69 -105 15 -198 25 -205 22z"/>
<path d="M2180 5497 c-25 -18 -70 -51 -100 -73 l-56 -41 -13 -78 c-7 -42 -18
-99 -25 -125 -20 -75 -10 -79 81 -38 55 26 99 38 148 43 39 3 73 9 77 13 6 6
-27 289 -37 320 -7 19 -26 14 -75 -21z"/>
<path d="M3332 4176 l4 -221 162 -295 c90 -162 170 -305 178 -318 20 -30 38
-23 41 14 1 16 9 88 18 159 9 72 18 148 21 170 2 22 7 51 9 65 2 14 7 52 10
85 3 33 8 67 11 76 2 9 -12 51 -32 95 -20 43 -44 97 -54 119 -10 22 -43 93
-73 157 l-56 118 -121 -1 -121 -1 3 -222z"/>
<path d="M3615 4390 c-6 -9 3 -30 134 -304 51 -105 70 -157 67 -175 -3 -14 -8
-56 -11 -93 -3 -37 -8 -77 -10 -90 -2 -13 -6 -54 -10 -93 -4 -38 -8 -77 -10
-86 -2 -9 0 -20 3 -25 9 -14 310 -164 328 -164 12 0 21 45 15 82 0 4 -1 117
-2 253 -1 245 -2 246 -27 283 -62 92 -267 379 -285 399 -17 19 -30 22 -103 22
-46 0 -86 -4 -89 -9z"/>
<path d="M3847 4394 c-9 -10 6 -35 116 -189 195 -272 178 -239 182 -357 2 -57
3 -196 4 -310 l1 -207 290 -146 c160 -80 295 -145 300 -145 6 0 10 7 10 15 0
12 -61 176 -90 240 -4 11 -39 99 -76 195 -37 96 -93 239 -123 317 l-56 142
-135 143 c-74 78 -171 180 -214 225 l-79 83 -62 0 c-34 0 -65 -3 -68 -6z"/>
<path d="M3777 3483 c-5 -8 -11 -54 -22 -153 l-6 -55 92 -105 c50 -58 99 -112
108 -121 9 -9 39 -43 66 -75 28 -32 86 -99 130 -149 44 -50 107 -122 140 -160
33 -38 65 -73 70 -79 6 -6 57 -65 115 -131 258 -295 255 -292 308 -309 26 -8
112 -35 191 -61 80 -25 150 -44 157 -41 8 3 -6 91 -52 318 -35 172 -66 324
-68 338 -2 14 -12 65 -22 113 l-18 88 -590 295 c-324 162 -591 294 -592 294
-2 0 -5 -3 -7 -7z m213 -129 c27 -25 38 -74 17 -74 -6 0 -22 -3 -34 -6 -16 -4
-23 0 -28 15 -9 29 -43 27 -57 -5 -13 -29 0 -44 39 -44 14 0 24 -9 31 -29 9
-25 7 -30 -11 -38 -36 -16 -80 -5 -109 27 -31 34 -36 75 -14 118 38 73 110 89
166 36z m110 -59 c35 -18 36 -20 10 -63 -22 -36 -19 -52 9 -52 10 0 24 15 34
35 9 19 22 35 29 35 21 -1 60 -36 56 -51 -10 -40 -140 -280 -150 -277 -7 3
-21 16 -31 31 l-20 26 26 61 c32 73 33 80 7 80 -13 0 -27 -14 -40 -39 -11 -22
-23 -42 -28 -45 -12 -7 -64 41 -60 56 7 30 111 218 119 218 6 0 23 -7 39 -15z
m238 -117 c18 -15 15 -27 -17 -88 -15 -30 -51 -99 -79 -153 -28 -54 -54 -102
-58 -108 -8 -14 -64 39 -64 61 0 9 4 20 9 25 7 9 78 142 135 253 14 27 21 32
39 26 12 -3 28 -11 35 -16z m125 -69 c76 -38 136 -85 147 -113 18 -49 -49
-176 -93 -176 -36 0 -44 -12 -51 -75 -23 -198 -24 -200 -86 -140 l-37 36 24
81 c26 91 28 119 11 136 -22 22 -36 13 -63 -41 -15 -28 -33 -61 -41 -71 -14
-19 -14 -19 -39 4 -30 28 -31 44 -7 90 10 19 47 89 82 155 60 116 78 145 87
145 2 0 32 -14 66 -31z m380 -191 c85 -43 101 -55 114 -86 16 -38 19 -106 8
-144 -11 -36 -53 -86 -85 -103 -45 -23 -79 -18 -166 24 l-80 38 -38 -77 c-22
-42 -47 -88 -57 -101 l-17 -23 -31 34 c-31 36 -38 58 -22 76 4 5 50 90 101
189 51 99 102 193 112 208 24 33 25 33 161 -35z"/>
<path d="M4424 3022 c-6 -4 -19 -22 -28 -40 -16 -32 -16 -33 9 -56 37 -34 73
-41 94 -19 40 43 36 72 -15 103 -39 22 -44 23 -60 12z"/>
<path d="M4732 2838 c-21 -28 -52 -99 -47 -109 9 -14 76 -55 102 -61 43 -11
100 84 72 118 -11 13 -100 64 -112 64 -3 0 -9 -6 -15 -12z"/>
<path d="M3714 3173 c3 -27 8 -86 11 -133 7 -107 12 -191 21 -305 7 -99 -4
-74 154 -355 107 -191 135 -241 171 -305 15 -27 39 -70 53 -95 l25 -44 308
-134 c455 -197 453 -196 462 -186 5 5 -1 31 -15 59 -13 28 -65 141 -116 252
-88 190 -109 225 -195 318 -10 11 -47 54 -83 95 -80 92 -119 137 -145 166 -11
12 -43 48 -71 80 -256 296 -338 390 -348 399 -6 6 -24 26 -40 45 -74 90 -170
190 -183 190 -12 0 -14 -10 -9 -47z"/>
<path d="M3430 2501 l-95 -37 -3 -101 -3 -102 -160 -81 c-246 -125 -251 -128
-210 -150 17 -8 59 3 228 60 165 56 215 70 243 65 19 -4 109 -24 200 -46 91
-22 175 -42 187 -44 23 -5 33 14 25 47 -2 9 -59 44 -135 83 -73 37 -135 70
-140 74 -4 4 -8 65 -10 137 -2 106 -5 129 -17 131 -8 0 -58 -15 -110 -36z"/>
</g>
</svg>
