<svg 
  id="canvas"
  version="1.1" 
  viewBox="0 0 800 300"
  xmlns="http://www.w3.org/2000/svg" 
  xmlns:xlink="http://www.w3.org/1999/xlink">
  <defs>
    <linearGradient id="frontGrad" gradientUnits="userSpaceOnUse" x1="0" y1="0" x2="0" y2="190">
      <stop  offset="0" style="stop-color:#1063c2"/>
      <stop  offset="0.5" style="stop-color:#1063c2"/>
    </linearGradient> 

    <linearGradient id="backGrad" gradientUnits="userSpaceOnUse" x1="0" y1="0" x2="0" y2="190">
      <stop  offset="0" style="stop-color:#1063c2"/>
      <stop  offset="0.3" style="stop-color:#2D0000"/>
    </linearGradient>

    <clipPath id="heart-clip">
      <path d="M398.5,208.3c0.9,0.7,2.2,0.7,3.1,0c6.9-5.5,35.7-28.7,53.2-49.4c14.6-14.8,25.3-50.3,0-63.6c-19.9-10.1-45-0.5-52.5,13.9c-0.9,1.8-3.5,1.8-4.4,0c-7.5-14.4-32.6-24-52.5-13.9c-25.4,13.5-15.1,48.2,0,63.6C362.8,179.6,391.6,202.8,398.5,208.3z"/>
    </clipPath>

    <mask id="heart-mask">
      <path d="M462.8,151.5c-0.6,0-1.8-0.5-1.8-0.5l3.6-6.5l320.2,0c1.9,0,3.5,1.6,3.5,3.5s-1.6,3.5-3.5,3.5L462.8,151.5z"/>
      <path d="M15.2,151.5c-1.9,0-3.5-1.6-3.5-3.5s1.6-3.5,3.5-3.5l320.3,0l3.6,6.5c0,0-1.1,0.5-1.8,0.5L15.2,151.5z"/>
      <path d="M398.5,208.3c0.9,0.7,2.2,0.7,3.1,0c6.9-5.5,35.7-28.7,53.2-49.4c14.6-14.8,25.3-50.3,0-63.6c-19.9-10.1-45-0.5-52.5,13.9c-0.9,1.8-3.5,1.8-4.4,0c-7.5-14.4-32.6-24-52.5-13.9c-25.4,13.5-15.1,48.2,0,63.6C362.8,179.6,391.6,202.8,398.5,208.3z"/>
    </mask>

    <filter id="goo" color-interpolation-filters="sRGB">
        <feGaussianBlur in="SourceGraphic" stdDeviation="4 4" result="blur"/>
        <feColorMatrix in="blur"
          mode="matrix"
          values="
          1 0 0 0 0
          0 1 0 0 0
          0 0 1 0 0
          0 0 0 19 -7"
          result="cm"/>
        <feComposite in="SourceGraphic" in2="cm" />
      </filter>
  </defs>
  <g id="particles-left" fill="url(#frontGrad)">
      <circle cx="337.4" cy="148" r="0.6"/>
      <circle cx="337.4" cy="148" r="0.9"/>
      <circle cx="337.4" cy="148" r="0.4"/>
      <circle cx="337.4" cy="148" r="0.3"/>
      <circle cx="337.4" cy="148" r="1"/>
    </g>
    <g id="particles-right" fill="url(#frontGrad)">
      <circle cx="462.7" cy="148" r="0.6"/>
      <circle cx="462.7" cy="148" r="0.9"/>
      <circle cx="462.7" cy="148" r="0.4"/>
      <circle cx="462.7" cy="148" r="0.3"/>
      <circle cx="462.7" cy="148" r="1"/>
    </g>

    <g id="liquid" clip-path="url(#heart-clip)">
      <path id="liquid-back" fill="url(#backGrad)" d="M1125,215.8c-27.9,0-47.5-2.4-75-1c-28.6,1.4-40.1,7.7-75,7.7c-28.8,0-43.9-3-75-3s-57.2,3.1-75,3.1c-24.9,0-36.1-5-75-7.7c-29.7-2-52.7,0.4-75,0.4s-48.2-5.3-75-5.3c-27.6,0-62.3,5.8-75,5.8c-27.9,0-47.6-2.7-75-1c-29,1.8-40.1,7.7-75,7.7c-28.8,0-43.9-3-75-3c-31.1,0-57.2,3.1-75,3.1c-24.9,0-45.3-5.6-75-7.7c-24.6-1.7-52.7,0.4-75,0.4c-22.3,0-48.2-5.3-75-5.3v190h1200V210C1172.4,210,1137.7,215.8,1125,215.8z"/>
      <g id="liquid-front-group" fill="url(#frontGrad)">
        <g id="liquid-bubbles">
          <circle id="bubble-0" cx="340" cy="217" r="3"/>
          <circle id="bubble-1" cx="350" cy="217" r="3.3"/>
          <circle id="bubble-2" cx="360" cy="217" r="6"/>
          <circle id="bubble-3" cx="370" cy="217" r="3"/>
          <circle id="bubble-4" cx="380" cy="217" r="2.5"/>
          <circle id="bubble-5" cx="390" cy="217" r="3.7"/>
          <circle id="bubble-6" cx="400" cy="217" r="5.9"/>
          <circle id="bubble-7" cx="410" cy="217" r="5.5"/>
          <circle id="bubble-8" cx="420" cy="217" r="3.5"/>
          <circle id="bubble-9" cx="430" cy="217" r="5.4"/>
          <circle id="bubble-10" cx="440" cy="217" r="4.7"/>
          <circle id="bubble-11" cx="450" cy="217" r="4.1"/>
          <circle id="bubble-12" cx="460" cy="217" r="5.3"/>
          <circle id="bubble-13" cx="470" cy="217" r="5.5"/>
        </g>
        <path id="liquid-front" fill="url(#frontGrad)" d="M1200,400l0-190c-30.3,0-51.7,12.8-68,12.8c-28.7,0-41.6-12.7-83.8-12.7c-30.9,0-52.1,12.7-76.1,12.7c-27.1,0-39.3-4.1-67.1-4.1c-21.3,0-42.1,12.9-79.8,12.8c-35.7-0.1-47.9-12.8-83.6-12.8c-9.6,0-46.3,4.7-64.6,4.2c-20.8-0.6-37.9-12.8-76.9-12.8c-30.3,0-51.7,12.8-68,12.8c-28.7,0-41.6-12.7-83.8-12.7c-30.9,0-52.1,12.7-76.1,12.7c-27.1,0-39.3-4.1-67.1-4.1c-21.3,0-42.1,12.9-79.8,12.8c-35.7-0.1-47.9-12.8-83.6-12.8c-9.6,0-46.3,4.7-64.6,4.2C56.1,222.2,39,210,0,210l0,190H1200z"/>
      </g>
    </g>

    <path id="track-right" fill="#FFFFFF" d="M462.8,151.5c-0.6,0-1.8-0.5-1.8-0.5l3.6-6.5l320.2,0c1.9,0,3.5,1.6,3.5,3.5s-1.6,3.5-3.5,3.5L462.8,151.5z"/>
    <path id="track-left" fill="#FFFFFF" d="M15.2,151.5c-1.9,0-3.5-1.6-3.5-3.5s1.6-3.5,3.5-3.5l320.3,0l3.6,6.5c0,0-1.1,0.5-1.8,0.5L15.2,151.5z"/>
    <path id="ekg-outer" fill="none" stroke="#F56476" stroke-width="2" stroke-linecap="round" stroke-linejoin="round" stroke-miterlimit="10" d="M15.2,148h357.2c0.2,0,0.5-0.1,0.7-0.3l3.1-3.1c0.4-0.4,1-0.4,1.3,0l5.7,5.7c0.3,0.3,0.9,0.4,1.3,0.1l4.9-4c0.6-0.5,1.4-0.1,1.5,0.6l2.5,22.7c0.1,1.1,1.8,1.1,1.9,0L399,125c0.1-1.1,1.7-1.2,1.9-0.1l4.5,26.5c0.1,0.9,1.3,1.1,1.7,0.3l5.3-9.4c0.4-0.6,1.2-0.6,1.6,0l3.3,5.3c0.2,0.3,0.5,0.4,0.8,0.4h366.5"/>
    <line id="progress-line-outer" fill="none" stroke="url(#frontGrad)" stroke-width="2" stroke-linecap="round" stroke-linejoin="round" stroke-miterlimit="10" x1="15.2" y1="148" x2="784.8" y2="148"/>
    <line id="progress-line-inner" clip-path="url(#heart-clip)" fill="none" stroke="#FFFFFF" stroke-width="2" stroke-linecap="round" stroke-linejoin="round" stroke-miterlimit="10" x1="15.2" y1="148" x2="784.8" y2="148"/>
    <path id="ekg-inner" clip-path="url(#heart-clip)" fill="none" stroke="#FFFFFF" stroke-width="2" stroke-linecap="round" stroke-linejoin="round" stroke-miterlimit="10" d="M15.2,148h357.2c0.2,0,0.5-0.1,0.7-0.3l3.1-3.1c0.4-0.4,1-0.4,1.3,0l5.7,5.7c0.3,0.3,0.9,0.4,1.3,0.1l4.9-4c0.6-0.5,1.4-0.1,1.5,0.6l2.5,22.7c0.1,1.1,1.8,1.1,1.9,0L399,125c0.1-1.1,1.7-1.2,1.9-0.1l4.5,26.5c0.1,0.9,1.3,1.1,1.7,0.3l5.3-9.4c0.4-0.6,1.2-0.6,1.6,0l3.3,5.3c0.2,0.3,0.5,0.4,0.8,0.4h366.5"/>
    <path id="heart-stroke" fill="none" stroke="#FFFFFF" stroke-width="5" stroke-linecap="round" stroke-linejoin="round" stroke-miterlimit="10" d="M398.5,208.3c0.9,0.7,2.2,0.7,3.1,0c6.9-5.5,35.7-28.7,53.2-49.4c14.6-14.8,25.3-50.3,0-63.6c-19.9-10.1-45-0.5-52.5,13.9c-0.9,1.8-3.5,1.8-4.4,0c-7.5-14.4-32.6-24-52.5-13.9c-25.4,13.5-15.1,48.2,0,63.6C362.8,179.6,391.6,202.8,398.5,208.3z"/>
    <polyline id="check" fill="none" stroke="#FFFFFF" stroke-width="5" stroke-linecap="round" stroke-linejoin="round" stroke-miterlimit="10" points="384.3,146.4 394.5,156.6 415.7,135.4 "/>
</svg>
