<?xml version="1.0" encoding="iso-8859-1"?>
<!-- Generator: Adobe Illustrator 19.2.0, SVG Export Plug-In . SVG Version: 6.00 Build 0)  -->
<svg version="1.1" id="Layer_1" xmlns="http://www.w3.org/2000/svg" xmlns:xlink="http://www.w3.org/1999/xlink" x="0px" y="0px"
	 viewBox="0 0 40 40" style="enable-background:new 0 0 40 40;" xml:space="preserve">
<path style="fill:#4d363b;" d="M21.5,30L21.5,30c0.275,0,0.5,0.225,0.5,0.5v5c0,0.275-0.225,0.5-0.5,0.5l0,0
	c-0.275,0-0.5-0.225-0.5-0.5v-5C21,30.225,21.225,30,21.5,30z"/>
<polyline style="fill:none;stroke:#4d363b;stroke-linecap:round;stroke-miterlimit:10;" points="23.5,36.5 21.5,35.5 20.5,36.5 "/>
<path style="fill:#4d363b;" d="M26.5,30L26.5,30c0.275,0,0.5,0.225,0.5,0.5v5c0,0.275-0.225,0.5-0.5,0.5l0,0
	c-0.275,0-0.5-0.225-0.5-0.5v-5C26,30.225,26.225,30,26.5,30z"/>
<g>
	<path style="fill:#f08b8b;" d="M22.5,32.5c-3.595,0-7.018-1.372-9.637-3.862L12.719,28.5h-9.43c0.312-0.164,0.617-0.333,0.938-0.51
		c0.316-0.174,0.646-0.356,1.008-0.549L7.009,26.5H2.686c4.944-3.264,9.224-6.59,13.731-10.094c1.268-0.986,2.557-1.988,3.888-3.009
		c3.294-2.529,3.663-3.541,4.223-5.074c0.112-0.308,0.233-0.64,0.392-1.016c0.057-0.142,0.116-0.272,0.178-0.402l0.07-0.154
		l0.011-0.014C26.217,4.74,28.256,3.5,30.5,3.5c3.309,0,6,2.691,6,6c0,0.371-0.259,1.056-0.487,1.661
		C35.749,11.857,35.5,12.516,35.5,13c0,0.33,0.117,0.697,0.278,1.205C36.065,15.107,36.5,16.47,36.5,18.5
		C36.5,26.612,30.612,32.5,22.5,32.5z"/>
	<path style="fill:#b54e4e;" d="M30.5,4C33.533,4,36,6.467,36,9.5c0,0.279-0.263,0.975-0.455,1.484C35.265,11.724,35,12.424,35,13
		c0,0.408,0.133,0.827,0.302,1.357C35.58,15.229,36,16.547,36,18.5C36,26.322,30.322,32,22.5,32c-3.466,0-6.766-1.323-9.292-3.725
		L12.918,28h-0.4H10H5.25c0.072-0.038,0.144-0.077,0.218-0.117L9.017,26H5H4.331c4.388-2.978,8.293-6.013,12.385-9.194
		c1.27-0.987,2.561-1.99,3.893-3.013c3.257-2.5,3.744-3.536,4.387-5.297c0.11-0.301,0.228-0.626,0.392-1.015
		c0.048-0.122,0.102-0.24,0.166-0.374l0.036-0.08l0.001-0.003l0.029-0.056C26.574,5.137,28.443,4,30.5,4 M30.5,3
		c-2.509,0-4.683,1.424-5.766,3.506l0,0c-0.001,0-0.004-0.001-0.005-0.001l0,0c-0.031,0.064-0.055,0.122-0.083,0.184
		c-0.067,0.139-0.13,0.279-0.187,0.423C23.529,9.319,23.85,10.045,20,13c-6.516,5.002-12.042,9.542-19,14c2.351,0,2.8,0,4,0
		c-1.445,0.767-2.374,1.37-4,2c3.646,0,8.288,0,9,0c0.972,0,1.751,0,2.519,0c2.601,2.473,6.109,4,9.981,4C31,33,37,26.813,37,18.5
		c0-3.147-1-4.735-1-5.5c0-0.808,1-2.601,1-3.5C37,5.91,34.09,3,30.5,3L30.5,3z"/>
</g>
<circle style="fill:#4d363b;" cx="30.5" cy="8.5" r="1.5"/>
<g>
	<path style="fill:#f08b8b;" d="M8.801,31.344c2.129-5.183,6.117-12.38,8.692-14.956c1.218-1.218,2.837-1.888,4.56-1.888
		c1.722,0,3.341,0.67,4.559,1.888s1.889,2.837,1.889,4.559s-0.671,3.341-1.889,4.559C23.847,28.271,13.207,30.515,8.801,31.344z"/>
	<path style="fill:#b54e4e;" d="M22.053,15c1.589,0,3.082,0.619,4.205,1.742C27.381,17.865,28,19.359,28,20.947
		c0,1.589-0.619,3.082-1.742,4.205c-2.099,2.099-9.661,4.165-16.632,5.525c2.16-4.988,5.868-11.582,8.222-13.935
		C18.971,15.619,20.464,15,22.053,15 M22.053,14c-1.778,0-3.556,0.678-4.913,2.035C14.427,18.748,10.083,26.625,8,32
		c6.417-1.158,16.252-3.427,18.965-6.14c2.713-2.713,2.713-7.112,0-9.825C25.609,14.678,23.831,14,22.053,14L22.053,14z"/>
</g>
<path style="fill:#4d363b;" d="M36,9c-0.433,0-0.802,0.275-0.941,0.66c-0.038,0.106-0.042,0.17-0.127,0.254
	c-0.091,0.091-0.183,0.109-0.295,0.153C34.264,10.213,34,10.576,34,11c0,0.552,0.448,1,1,1c1.435,0,1.6,0,4,0C39,10.671,37.1,9,36,9
	z"/>
<polyline style="fill:none;stroke:#4d363b;stroke-linecap:round;stroke-miterlimit:10;" points="28.5,36.5 26.5,35.5 25.5,36.5 "/>
</svg>
