<svg xmlns="http://www.w3.org/2000/svg" xmlns:xlink="http://www.w3.org/1999/xlink" viewBox="0 0 90 90"><defs><style>.cls-1{fill:none;}.cls-2{fill:#404041;}.cls-3{fill:#ffa400;}.cls-4{fill:#fc6e51;}.cls-5{fill:#d44f39;}.cls-6{clip-path:url(#clip-path);}.cls-7{fill:#e9573f;}.cls-8{fill:#231f20;}</style><clipPath id="clip-path"><path class="cls-1" d="M71.59,50.65c0-.08,0-.16,0-.25.33-4.74.19-9.68,3.89-13.42a11.14,11.14,0,0,0,0-15.63,10.84,10.84,0,0,0-15.25-.2h0L39.31,42.32,30.53,51.2,13.88,68s34,15.37,50-.87A25.69,25.69,0,0,0,71.59,50.65Z"/></clipPath></defs><title>cardinal-bird</title><g id="cardinal-bird"><path class="cls-2" d="M44.73,73a.45.45,0,0,1,.4-.25H47a.45.45,0,0,1,.36.18l4.05,5.4,4,0a.45.45,0,0,1,.38.21L57.25,81a.44.44,0,0,1-.06.54.45.45,0,0,1-.54.09l-2.06-1.09H50.45a.47.47,0,0,1-.29,0H47.58l-1.94,1.08a.45.45,0,0,1-.53-.07A.44.44,0,0,1,45,81l1.17-2.36a.45.45,0,0,1,.4-.25l1.85,0-3.66-4.87A.44.44,0,0,1,44.73,73Z"/><path class="cls-3" d="M76.77,24.69l7.85,1.11a.44.44,0,0,1,.15.83l-7,3.67Z"/><path class="cls-4" d="M63.89,67.17c-16.05,16.23-50,.87-50,.87L39.31,42.32C48,33.5,60.6,31.91,67.39,38.77S72.61,58.35,63.89,67.17Z"/><path class="cls-5" d="M42.28,55.76c-13.65,13.81-27,20.56-34.83,23.63a1.77,1.77,0,0,1-1.92-2.89l28.63-29c11.57-11.7,22.77-19.35,25-17.08S53.85,44.05,42.28,55.76Z"/><path class="cls-4" d="M75.51,37A10.84,10.84,0,0,1,60,37a11.14,11.14,0,0,1,0-15.63,10.84,10.84,0,0,1,15.46,0A11.14,11.14,0,0,1,75.51,37Z"/><polygon class="cls-4" points="40.7 61.49 30.53 51.2 60.25 21.14 70.42 31.43 40.7 61.49"/><path class="cls-4" d="M75.51,37c-3.7,3.74-3.56,8.68-3.89,13.42s-12-4.94-5-12S75.51,37,75.51,37Z"/><path class="cls-4" d="M74.06,20.14,63.62,8.91a1.78,1.78,0,0,0-3.08,1c-.52,4.86-2.27,13.06-8.12,19C43.61,37.79,74.06,20.14,74.06,20.14Z"/><g class="cls-6"><path class="cls-2" d="M87.11,40.09a12.1,12.1,0,0,1-17.24,0,12.43,12.43,0,0,1,0-17.44,12.09,12.09,0,0,1,17.24,0A12.43,12.43,0,0,1,87.11,40.09Z"/></g><path class="cls-7" d="M58.29,62.59c-11.89,12-38.36-.68-38.36-.68L38.78,42.86c6.46-6.53,16.07-7.41,21.45-2S64.75,56.06,58.29,62.59Z"/><path class="cls-8" d="M74.25,27.22a1.94,1.94,0,0,1-2.77,0,2,2,0,0,1,0-2.81,2,2,0,0,1,2.77,0A2,2,0,0,1,74.25,27.22Z"/></g></svg>